<?xml version="1.0" encoding="UTF-8"?>
<svg xmlns="http://www.w3.org/2000/svg" xmlns:xlink="http://www.w3.org/1999/xlink" width="900pt" height="899.99999pt" viewBox="0 0 900 899.99999" version="1.2">
<defs>
<clipPath id="clip1">
  <path d="M 214 212.992188 L 682 212.992188 L 682 471 L 214 471 Z M 214 212.992188 "/>
</clipPath>
<clipPath id="clip2">
  <path d="M 214 429 L 682 429 L 682 686.992188 L 214 686.992188 Z M 214 429 "/>
</clipPath>
</defs>
<g id="surface1">
<path style=" stroke:none;fill-rule:nonzero;fill:rgb(12.159729%,12.159729%,12.159729%);fill-opacity:1;" d="M 451.925781 0 C 444.59375 0 437.261719 0.179688 429.9375 0.539062 C 422.613281 0.898438 415.304688 1.4375 408.007812 2.15625 C 400.707031 2.875 393.433594 3.773438 386.179688 4.851562 C 378.925781 5.925781 371.703125 7.179688 364.511719 8.609375 C 357.316406 10.039062 350.164062 11.644531 343.050781 13.429688 C 335.9375 15.210938 328.871094 17.164062 321.855469 19.292969 C 314.839844 21.421875 307.878906 23.722656 300.972656 26.191406 C 294.070312 28.664062 287.230469 31.300781 280.453125 34.109375 C 273.679688 36.914062 266.976562 39.882812 260.347656 43.019531 C 253.71875 46.15625 247.171875 49.453125 240.703125 52.90625 C 234.238281 56.363281 227.859375 59.976562 221.566406 63.75 C 215.277344 67.519531 209.085938 71.441406 202.988281 75.515625 C 196.890625 79.589844 190.898438 83.808594 185.007812 88.179688 C 179.117188 92.546875 173.335938 97.054688 167.667969 101.707031 C 162 106.359375 156.449219 111.148438 151.015625 116.074219 C 145.582031 120.996094 140.273438 126.054688 135.089844 131.238281 C 129.902344 136.421875 124.847656 141.734375 119.921875 147.167969 C 115 152.601562 110.210938 158.152344 105.558594 163.820312 C 100.90625 169.488281 96.394531 175.265625 92.027344 181.15625 C 87.660156 187.046875 83.4375 193.039062 79.363281 199.136719 C 75.289062 205.234375 71.367188 211.429688 67.597656 217.71875 C 63.828125 224.007812 60.214844 230.386719 56.757812 236.855469 C 53.300781 243.320312 50.003906 249.871094 46.871094 256.5 C 43.734375 263.128906 40.765625 269.828125 37.957031 276.605469 C 35.152344 283.378906 32.511719 290.21875 30.042969 297.125 C 27.570312 304.027344 25.273438 310.988281 23.144531 318.003906 C 21.015625 325.023438 19.058594 332.089844 17.277344 339.203125 C 15.496094 346.316406 13.890625 353.46875 12.460938 360.660156 C 11.027344 367.851562 9.777344 375.074219 8.699219 382.328125 C 7.625 389.582031 6.726562 396.859375 6.007812 404.15625 C 5.289062 411.453125 4.75 418.765625 4.390625 426.089844 C 4.03125 433.414062 3.851562 440.742188 3.851562 448.074219 C 3.851562 455.40625 4.03125 462.738281 4.390625 470.0625 C 4.75 477.386719 5.289062 484.695312 6.007812 491.992188 C 6.726562 499.292969 7.625 506.566406 8.699219 513.820312 C 9.777344 521.074219 11.027344 528.296875 12.460938 535.488281 C 13.890625 542.683594 15.496094 549.835938 17.277344 556.949219 C 19.058594 564.0625 21.015625 571.125 23.144531 578.144531 C 25.273438 585.160156 27.570312 592.121094 30.042969 599.027344 C 32.511719 605.929688 35.152344 612.769531 37.957031 619.546875 C 40.765625 626.320312 43.734375 633.023438 46.871094 639.652344 C 50.003906 646.28125 53.300781 652.828125 56.757812 659.296875 C 60.214844 665.761719 63.828125 672.140625 67.597656 678.429688 C 71.367188 684.722656 75.289062 690.914062 79.363281 697.011719 C 83.4375 703.109375 87.660156 709.101562 92.027344 714.992188 C 96.394531 720.882812 100.90625 726.664062 105.558594 732.332031 C 110.210938 738 115 743.550781 119.921875 748.984375 C 124.847656 754.417969 129.902344 759.726562 135.089844 764.910156 C 140.273438 770.097656 145.582031 775.152344 151.015625 780.078125 C 156.449219 785 162 789.789062 167.667969 794.441406 C 173.335938 799.09375 179.117188 803.605469 185.007812 807.972656 C 190.898438 812.339844 196.890625 816.5625 202.988281 820.636719 C 209.085938 824.710938 215.277344 828.632812 221.566406 832.402344 C 227.859375 836.171875 234.238281 839.785156 240.703125 843.242188 C 247.171875 846.699219 253.71875 849.996094 260.347656 853.128906 C 266.976562 856.265625 273.679688 859.234375 280.453125 862.042969 C 287.230469 864.847656 294.070312 867.488281 300.972656 869.957031 C 307.878906 872.425781 314.839844 874.726562 321.855469 876.855469 C 328.871094 878.984375 335.9375 880.941406 343.050781 882.722656 C 350.164062 884.503906 357.316406 886.109375 364.511719 887.539062 C 371.703125 888.972656 378.925781 890.222656 386.179688 891.300781 C 393.433594 892.375 400.707031 893.273438 408.007812 893.992188 C 415.304688 894.710938 422.613281 895.25 429.9375 895.609375 C 437.261719 895.96875 444.59375 896.148438 451.925781 896.148438 C 459.257812 896.148438 466.585938 895.96875 473.910156 895.609375 C 481.234375 895.25 488.546875 894.710938 495.84375 893.992188 C 503.140625 893.273438 510.417969 892.375 517.671875 891.300781 C 524.925781 890.222656 532.148438 888.972656 539.339844 887.539062 C 546.53125 886.109375 553.683594 884.503906 560.796875 882.722656 C 567.910156 880.941406 574.976562 878.984375 581.996094 876.855469 C 589.011719 874.726562 595.972656 872.425781 602.875 869.957031 C 609.78125 867.488281 616.621094 864.847656 623.394531 862.042969 C 630.171875 859.234375 636.871094 856.265625 643.5 853.128906 C 650.128906 849.996094 656.679688 846.699219 663.144531 843.242188 C 669.613281 839.785156 675.992188 836.171875 682.28125 832.402344 C 688.570312 828.632812 694.765625 824.710938 700.863281 820.636719 C 706.960938 816.5625 712.953125 812.339844 718.84375 807.972656 C 724.734375 803.605469 730.511719 799.09375 736.179688 794.441406 C 741.847656 789.789062 747.398438 785 752.832031 780.078125 C 758.265625 775.152344 763.578125 770.097656 768.761719 764.910156 C 773.945312 759.726562 779 754.417969 783.925781 748.984375 C 788.851562 743.550781 793.640625 738 798.292969 732.332031 C 802.945312 726.664062 807.453125 720.882812 811.820312 714.992188 C 816.191406 709.101562 820.410156 703.109375 824.484375 697.011719 C 828.558594 690.914062 832.480469 684.722656 836.25 678.429688 C 840.023438 672.140625 843.636719 665.761719 847.089844 659.296875 C 850.546875 652.828125 853.84375 646.28125 856.980469 639.652344 C 860.113281 633.023438 863.085938 626.320312 865.890625 619.546875 C 868.699219 612.769531 871.335938 605.929688 873.808594 599.027344 C 876.277344 592.121094 878.578125 585.160156 880.707031 578.144531 C 882.835938 571.128906 884.789062 564.0625 886.570312 556.949219 C 888.351562 549.835938 889.960938 542.683594 891.390625 535.488281 C 892.820312 528.296875 894.074219 521.074219 895.148438 513.820312 C 896.226562 506.566406 897.125 499.292969 897.84375 491.992188 C 898.5625 484.695312 899.101562 477.386719 899.460938 470.0625 C 899.820312 462.738281 900 455.40625 900 448.074219 C 900 440.742188 899.820312 433.414062 899.460938 426.089844 C 899.101562 418.765625 898.5625 411.453125 897.84375 404.15625 C 897.125 396.859375 896.226562 389.582031 895.148438 382.328125 C 894.074219 375.074219 892.820312 367.851562 891.390625 360.660156 C 889.960938 353.46875 888.351562 346.316406 886.570312 339.203125 C 884.789062 332.089844 882.835938 325.023438 880.707031 318.003906 C 878.578125 310.988281 876.277344 304.027344 873.808594 297.125 C 871.335938 290.21875 868.699219 283.378906 865.890625 276.605469 C 863.085938 269.828125 860.113281 263.128906 856.980469 256.5 C 853.84375 249.871094 850.546875 243.320312 847.089844 236.855469 C 843.636719 230.386719 840.019531 224.007812 836.25 217.71875 C 832.480469 211.429688 828.558594 205.234375 824.484375 199.136719 C 820.410156 193.039062 816.191406 187.046875 811.820312 181.15625 C 807.453125 175.265625 802.945312 169.488281 798.292969 163.820312 C 793.640625 158.152344 788.851562 152.601562 783.925781 147.167969 C 779 141.734375 773.945312 136.421875 768.761719 131.238281 C 763.578125 126.054688 758.265625 120.996094 752.832031 116.074219 C 747.398438 111.148438 741.847656 106.359375 736.179688 101.707031 C 730.511719 97.054688 724.734375 92.546875 718.84375 88.179688 C 712.953125 83.808594 706.960938 79.589844 700.863281 75.515625 C 694.765625 71.441406 688.570312 67.519531 682.28125 63.75 C 675.992188 59.976562 669.613281 56.363281 663.144531 52.90625 C 656.679688 49.453125 650.128906 46.15625 643.5 43.019531 C 636.871094 39.882812 630.171875 36.914062 623.394531 34.109375 C 616.621094 31.300781 609.78125 28.664062 602.875 26.191406 C 595.972656 23.722656 589.011719 21.421875 581.996094 19.292969 C 574.976562 17.164062 567.910156 15.210938 560.796875 13.429688 C 553.683594 11.644531 546.53125 10.039062 539.339844 8.609375 C 532.148438 7.179688 524.925781 5.925781 517.671875 4.851562 C 510.417969 3.773438 503.140625 2.875 495.84375 2.15625 C 488.546875 1.4375 481.234375 0.898438 473.910156 0.539062 C 466.585938 0.179688 459.257812 0 451.925781 0 Z M 451.925781 0 "/>
<g clip-path="url(#clip1)" clip-rule="nonzero">
<path style=" stroke:none;fill-rule:nonzero;fill:rgb(49.409485%,85.099792%,34.118652%);fill-opacity:1;" d="M 333.1875 470.308594 C 373.8125 433.0625 414.441406 392.4375 448.300781 351.808594 C 482.15625 392.4375 522.785156 433.0625 563.414062 470.308594 L 681.914062 470.308594 C 610.8125 405.976562 546.484375 341.648438 492.3125 270.550781 L 448.300781 212.992188 L 404.285156 273.9375 C 350.113281 341.648438 285.785156 409.363281 214.6875 470.308594 Z M 333.1875 470.308594 "/>
</g>
<g clip-path="url(#clip2)" clip-rule="nonzero">
<path style=" stroke:none;fill-rule:nonzero;fill:rgb(100%,100%,100%);fill-opacity:1;" d="M 333.1875 686.992188 C 373.8125 649.75 414.441406 609.121094 448.300781 568.492188 C 482.15625 609.121094 522.785156 649.75 563.414062 686.992188 L 681.914062 686.992188 C 610.8125 622.664062 546.484375 558.335938 492.3125 487.234375 L 448.300781 429.679688 L 404.285156 487.234375 C 350.113281 554.949219 285.785156 622.664062 214.6875 686.992188 Z M 333.1875 686.992188 "/>
</g>
</g>
</svg>
